inDegrees=no
num_controls=7
num_derivatives=13
num_iterations=28
num_multipliers=7
num_parameters=0
num_slacks=7
num_states=26
objective=0.471054
objective_accelerations=0.054957
objective_balance=0.000634
objective_effort=0.015964
objective_height=0.390151
objective_ligament=0.009348
solver_duration=398.192362
status=Solve_Succeeded
success=true
DataType=double
version=3
OpenSimVersion=4.5
endheader
time	/jointset/ground_pelvis/pelvis_tilt/value	/jointset/ground_pelvis/pelvis_tx/value	/jointset/ground_pelvis/pelvis_ty/value	/jointset/hip_l/hip_flexion_l/value	/jointset/hip_l/hip_adduction_l/value	/jointset/hip_l/hip_rotation_l/value	/jointset/back/lumbar_extension/value	/jointset/patellofemoral_l/patellar_flexion_l/value	/jointset/knee_l/knee_flexion_l/value	/jointset/knee_l/knee_adduction_l/value	/jointset/knee_l/knee_rotation_l/value	/jointset/ankle_l/ankle_angle_l/value	/jointset/subtalar_l/subtalar_angle_l/value	/jointset/ground_pelvis/pelvis_tilt/speed	/jointset/ground_pelvis/pelvis_tx/speed	/jointset/ground_pelvis/pelvis_ty/speed	/jointset/hip_l/hip_flexion_l/speed	/jointset/hip_l/hip_adduction_l/speed	/jointset/hip_l/hip_rotation_l/speed	/jointset/back/lumbar_extension/speed	/jointset/patellofemoral_l/patellar_flexion_l/speed	/jointset/knee_l/knee_flexion_l/speed	/jointset/knee_l/knee_adduction_l/speed	/jointset/knee_l/knee_rotation_l/speed	/jointset/ankle_l/ankle_angle_l/speed	/jointset/subtalar_l/subtalar_angle_l/speed	/forceset/tau_hip_flexion_l	/forceset/tau_hip_adduction_l	/forceset/tau_hip_rotation_l	/forceset/tau_knee_flexion_l	/forceset/tau_ankle_angle_l	/forceset/tau_subtalar_angle_l	/forceset/tau_lumbar_extension	lambda_cid13_p0	lambda_cid13_p1	lambda_cid13_p2	lambda_cid13_p3	lambda_cid13_p4	lambda_cid13_p5	lambda_cid14_p0	/jointset/ground_pelvis/pelvis_tilt/accel	/jointset/ground_pelvis/pelvis_tx/accel	/jointset/ground_pelvis/pelvis_ty/accel	/jointset/hip_l/hip_flexion_l/accel	/jointset/hip_l/hip_adduction_l/accel	/jointset/hip_l/hip_rotation_l/accel	/jointset/back/lumbar_extension/accel	/jointset/patellofemoral_l/patellar_flexion_l/accel	/jointset/knee_l/knee_flexion_l/accel	/jointset/knee_l/knee_adduction_l/accel	/jointset/knee_l/knee_rotation_l/accel	/jointset/ankle_l/ankle_angle_l/accel	/jointset/subtalar_l/subtalar_angle_l/accel	gamma_cid13_p0	gamma_cid13_p1	gamma_cid13_p2	gamma_cid13_p3	gamma_cid13_p4	gamma_cid13_p5	gamma_cid14_p0
1.5	-0.3260083942628636	0.06245508884191867	0.8094873982659807	0.9190798692732416	-0.3565440303834219	-0.06994468633063092	-0.3183231899349168	0.7325377187237154	0.7325377187237126	-0.04689119577162772	-0.1645475929390553	0.2519168663807498	0.1480845106168938	0.4609689487634779	0.2574305084701582	0.4057840920633411	-2.073635077715982	0.02284683613105823	-0.5562907207633472	0.5860495621464471	-1.947324113499924	-1.947324113500037	-0.2241119808008961	0.04705307562562644	-0.480131478727962	-0.1523777286646759	-0.126525025251977	0.08205622637293414	0.004313406053754302	-0.114782717906327	-0.03759062346811395	-0.02416249257613894	0.1216880095447579	-38.6090386882709	17.37494721092239	-3.189278824508425	1.723708276292281	-433.7678269144144	-20.44920996512937	-13.54109327305026	0.4441276476631065	0.3839345033989448	-0.6401945505633819	-0.9634841307392934	0.2838047495073175	-0.1571375016218694	1.367940482385007	-0.9465425052405447	-0.94654250524054	-0.2986728084265327	0.362369120965443	-0.4702012784661739	0.3035363657692237	-1.037491953126906e-07	3.797138666164452e-06	5.531481407503557e-07	5.449138991287359e-07	4.562882125348008e-08	1.545427847054384e-06	2.363665661405629e-07
1.51	-0.3213767972486692	0.06504829816691612	0.8135125251831112	0.8982970323828521	-0.3563021092137117	-0.07551880746295067	-0.3123953809741924	0.7130190557599416	0.7130190557599518	-0.04914642792807694	-0.1640629094139918	0.2470924326686854	0.1465751086961846	0.4652795144136505	0.2611768447751966	0.3991660691158375	-2.08268283059229	0.02553310057714409	-0.5583934851598944	0.599450053158295	-1.956177314644152	-1.956177314644236	-0.2269842657659785	0.04995648974435363	-0.4846869501883418	-0.1494899490911983	-0.1227595530531048	0.08069126834973743	0.005039969345358114	-0.1121562810299658	-0.03776724367697159	-0.02511025089943502	0.1185807404632733	-38.58485013839337	17.58186235255953	-2.99329234761751	1.917385170092795	-431.4586871850132	-20.47268086424002	-14.31872346535721	0.4138770990089189	0.3649185900041233	-0.6838823048146081	-0.8380086559650832	0.2598781429631323	-0.2156228885935572	1.316776885557101	-0.8200820946619402	-0.8200820946581013	-0.2883372831719944	0.2654166241834608	-0.4378366180799302	0.2826062930654812	-1.159718334037174e-07	3.911517649127164e-06	6.043455796298306e-07	5.554003234304257e-07	3.927009424774706e-08	1.54300738026796e-06	2.383232164238848e-07
1.52	-0.3167042233628848	0.06767795793415252	0.8174692166431695	0.8774312004057583	-0.3560335572293829	-0.08110971163516273	-0.306335432408342	0.6934187861496406	0.6934187861495783	-0.05143174912332846	-0.1635469739340734	0.2422245209343467	0.1450948260791962	0.4691643230762989	0.2647205969179457	0.3920970006497014	-2.090234095064219	0.02817299905532387	-0.5596473287532758	0.6124774831690547	-1.963645442814282	-1.963645442814338	-0.2301297884359595	0.05330346653735923	-0.4888270831789569	-0.1465538679205704	-0.1189940808537925	0.0793263103268303	0.005766532634696422	-0.1095298441532207	-0.03794386388560699	-0.02605800922223564	0.1154734713820169	-38.56012802443045	17.78725562342636	-2.795430991611715	2.103776823221237	-429.1380742812835	-20.50927755946594	-15.09650630648328	0.358976250159139	0.3434176709405806	-0.7304036542898312	-0.664186449863043	0.2745315559263752	0.01264665901119808	1.293328282167832	-0.6695279104210089	-0.6695279104210106	-0.3533203494058478	0.4510816558212077	-0.3871335845139166	0.3131966851993224	-1.004543369082461e-07	3.790314516811833e-06	3.851100225595373e-07	5.294005771886701e-07	7.359042094104292e-08	1.550462160968579e-06	2.544598328720244e-07
1.53	-0.3119949943374599	0.07034202248482931	0.8213530102332046	0.8564974277157161	-0.3557388950107835	-0.08670825758105263	-0.3001470690538222	0.6737508651455598	0.6737508651452581	-0.05375030260467768	-0.1629948329588902	0.2373173552017101	0.1436440930284945	0.4726007852961043	0.2680548185493605	0.3845930516234695	-2.096253788822337	0.03077377174876592	-0.5600368533818993	0.6251323879079029	-1.969695253228783	-1.969695253228796	-0.2335123078452626	0.05713054396372384	-0.4925252070180647	-0.1435511462582466	-0.1151886535068567	0.07786137809277369	0.00641643522069828	-0.1070695605440973	-0.03798034540584543	-0.02705332814426463	0.1123367397110209	-38.5047680375693	18.01557232952092	-2.609942656156739	2.269620136214283	-426.9922474204736	-20.5511215573163	-15.86816752096544	0.3238823724919987	0.3228861995975703	-0.7706518577691752	-0.5308581655659141	0.2547110646246518	-0.06071872221960403	1.242151596864151	-0.5362423609966099	-0.5362423609903852	-0.3199471838281793	0.3493520418670967	-0.3489145590924081	0.2995906209267824	-5.546294741462087e-08	3.418805387013584e-06	-1.214605927073815e-07	4.646342747445039e-07	1.511322421895565e-07	1.568409392124179e-06	2.856626633702827e-07
1.54	-0.3072538204568748	0.07303832160989117	0.825159712066779	0.8355114586227449	-0.3554178528775349	-0.09230989211296589	-0.2938340406464823	0.6540297390862773	0.6540297390862427	-0.05610052716856091	-0.1624042549588152	0.232375655675609	0.1422245433372509	0.4755532940999228	0.2711675117949579	0.3766786493583042	-2.100673375651634	0.0334489819851426	-0.5602650459473592	0.637410493731595	-1.974286453804547	-1.974286453804516	-0.2364640051400581	0.06099087162303782	-0.4957338418764988	-0.1403171960288172	-0.111383226160202	0.07639644585835977	0.007066337810473482	-0.1046092769351607	-0.03801682692620664	-0.02804864706681479	0.1092000080398754	-38.45188690094593	18.24374911862462	-2.423776124600484	2.430911593057065	-424.8832776989427	-20.62912034207234	-16.6277209782763	0.26218556696265	0.2991119937764828	-0.8124943020764263	-0.3441650640986608	0.2894190645132882	0.04491307164378459	1.217968499137223	-0.3778059426736773	-0.3778059426736788	-0.2671559265039083	0.4577317024112585	-0.2892357883799668	0.3594423986204455	-4.890894866041092e-08	3.286487141307908e-06	-2.602072512753517e-07	4.43093316054827e-07	1.609024816819674e-07	1.538231314412345e-06	2.917172891112141e-07
1.55	-0.3024856834126634	0.0757645773179858	0.8288852760883596	0.8144896261226752	-0.3550693129496983	-0.09791404585558468	-0.2874001818558979	0.6342702323424478	0.6342702323424733	-0.05847688386671091	-0.1617754811382496	0.2274044689549138	0.140839018915544	0.4779848552534043	0.2740399427161928	0.3683728843728238	-2.103405647123175	0.0362847712434661	-0.5605524563367066	0.6492842010789284	-1.977359804358613	-1.977359804358699	-0.2387073329337806	0.06475919296218142	-0.4984182087987303	-0.1367328843241193	-0.1074999464497432	0.07484024956507934	0.007645910945943109	-0.1022910825269127	-0.03792930791859354	-0.02909800514251096	0.1059931174797935	-38.37297457230944	18.49972557927867	-2.252194436559244	2.597227152048334	-422.9111599181621	-20.69373298923978	-17.37102845010567	0.2202497245381743	0.2748529846506905	-0.8487972572089733	-0.1946436809100598	0.2841013683397386	-0.06336136638908577	1.16051235777189	-0.2338872352321595	-0.2338872352501134	-0.1873611389679006	0.3357341303115184	-0.2451296672215188	0.3655741002318831	-8.664150880161176e-08	3.429758392491487e-06	2.484325765761733e-08	4.713554708214063e-07	9.258807262930777e-08	1.452604511266295e-06	2.687968093708793e-07
